# xmcd CD database file
#
# Track frame offsets:
#	150
#	5075
#	9925
#	15975
#	19425
#	23399
#	30225
#	33750
#	40087
#	44725
#	50999
#	57750
#	62325
#	67975
#	73325
#	79050
#	82125
#	88200
#	93550
#	98775
#	103500
#	106225
#	109950
#	117750
#	121299
#	126675
#	133500
#	139050
#	144637
#	149137
#	156637
#	161962
#	166575
#	170375
#	177125
#	180675
#	186625
#	191450
#	195050
#	199525
#	203925
#	209625
#	215350
#	220825
#	227625
#	232650
#	237450
#	241399
#	246825
#	249600
#	254575
#	258187
#	263175
#	268725
#	274075
#	279975
#	283950
#	294750
#	300337
#	306187
#	313225
#	319075
#	324400
#	329875
#	335399
#	340450
#	344775
#
# Disc length: 4660 seconds
#
# Revision: 3
# Processed by: cddbd v1.5.2PL0 Copyright (c) Steve Scherf et al.
# Submitted via: CDex 1.70beta2
#
DISCID=f8123243
DTITLE=小澤征爾 - WORLD ANTHEMS 世界の国家
DYEAR=1998
DGENRE=Sound Clip
TTITLE0=日本
TTITLE1=大韓民国
TTITLE2=北朝鮮
TTITLE3=中国
TTITLE4=モンゴル
TTITLE5=トルコ
TTITLE6=キプロス
TTITLE7=イスラエル
TTITLE8=イラン
TTITLE9=インド
TTITLE10=ロシア
TTITLE11=ベラルーシ
TTITLE12=ウクライナ
TTITLE13=モルドバ
TTITLE14=グルジア
TTITLE15=アルメニア
TTITLE16=アゼルバイジャン
TTITLE17=カザフスタン
TTITLE18=ウズベキスタン
TTITLE19=キルギスタン
TTITLE20=エストニア
TTITLE21=ラトビア
TTITLE22=リトアニア
TTITLE23=ポーランド
TTITLE24=チェコ
TTITLE25=スロバキア
TTITLE26=ハンガリー
TTITLE27=ルーマニア
TTITLE28=ユーゴスラビア
TTITLE29=スロベニア
TTITLE30=クロアチア
TTITLE31=ボスニア・ヘルツェゴビナ
TTITLE32=マケドニア旧ユーゴスラビア共和国
TTITLE33=ブルガリア
TTITLE34=ギリシャ
TTITLE35=ドイツ
TTITLE36=フランス
TTITLE37=イギリス
TTITLE38=オランダ
TTITLE39=ベルギー
TTITLE40=ルクセンブルク
TTITLE41=オーストリア
TTITLE42=イタリア
TTITLE43=スペイン
TTITLE44=ポルトガル
TTITLE45=ノルウェー
TTITLE46=スウェーデン
TTITLE47=デンマーク
TTITLE48=フィンランド
TTITLE49=スイス
TTITLE50=リヒテンシュタイン
TTITLE51=アンドラ
TTITLE52=モナコ
TTITLE53=アイルランド
TTITLE54=アイスランド
TTITLE55=アルジェリア
TTITLE56=南アフリカ
TTITLE57=カナダ
TTITLE58=アメリカ合衆国
TTITLE59=メキシコ
TTITLE60=コスタリカ
TTITLE61=ジャマイカ
TTITLE62=ブラジル
TTITLE63=チリ
TTITLE64=アルゼンチン
TTITLE65=オーストラリア
TTITLE66=ニュージーランド
EXTD=YEAR: 1998
EXTT0=
EXTT1=
EXTT2=
EXTT3=
EXTT4=
EXTT5=
EXTT6=
EXTT7=
EXTT8=
EXTT9=
EXTT10=
EXTT11=
EXTT12=
EXTT13=
EXTT14=
EXTT15=
EXTT16=
EXTT17=
EXTT18=
EXTT19=
EXTT20=
EXTT21=
EXTT22=
EXTT23=
EXTT24=
EXTT25=
EXTT26=
EXTT27=
EXTT28=
EXTT29=
EXTT30=
EXTT31=
EXTT32=
EXTT33=
EXTT34=
EXTT35=
EXTT36=
EXTT37=
EXTT38=
EXTT39=
EXTT40=
EXTT41=
EXTT42=
EXTT43=
EXTT44=
EXTT45=
EXTT46=
EXTT47=
EXTT48=
EXTT49=
EXTT50=
EXTT51=
EXTT52=
EXTT53=
EXTT54=
EXTT55=
EXTT56=
EXTT57=
EXTT58=
EXTT59=
EXTT60=
EXTT61=
EXTT62=
EXTT63=
EXTT64=
EXTT65=
EXTT66=
PLAYORDER=
